#!OML:ASF G:\JayActor3\Patient Classification 1\Patient 1\Session 2\male.ASF
:FULLY-SPECIFIED
:DEGREES
2566
root -42.9324 16.9009 -2.43702 2645.84 84.8952 -236.685
lowerback 13.2715 -2.70711 4.57728
upperback 11.158 -2.32845 6.26548
thorax 4.49966 -0.745142 4.30916
lowerneck -5.37106 -10.0464 -5.29211
upperneck 24.5059 -14.0603 7.06646
head 9.49189 -6.07371 1.90894
rclavicle 1.43125e-014 -4.45278e-014
rhumerus -26.0862 5.66601 -79.6451
rradius 40.6096
rwrist -9.30099
rhand -30.0607 4.28528
rfingers 7.12502
rthumb -3.37609 -25.6677
lclavicle 1.43125e-014 -4.45278e-014
lhumerus -28.6669 1.86795 89.7759
lradius 38.1765
lwrist 16.2701
lhand -19.2362 17.6402
lfingers 7.12502
lthumb 7.07715 47.5019
rfemur -16.6002 -5.13443 22.3
rtibia 33.6767
rfoot -29.7819 -15.1927
rtoes 35.2821
lfemur -49.3455 22.7138 -30.1546
ltibia 53.829
lfoot 30.6919 3.66133
ltoes 9.86023
2567
root -42.9609 16.9078 -2.4203 2647.46 84.8033 -234.907
lowerback 13.5554 -2.7204 4.60638
upperback 11.2167 -2.3031 6.32878
thorax 4.41367 -0.726491 4.36871
lowerneck -5.37562 -10.093 -5.37999
upperneck 24.2815 -14.129 7.16503
head 9.43303 -6.11446 1.94808
rclavicle -4.6118e-014 -6.20208e-014
rhumerus -25.7244 5.7112 -79.6526
rradius 40.6161
rwrist -9.59566
rhand -30.3416 4.28315
rfingers 7.12502
rthumb -3.64738 -25.6654
lclavicle -4.6118e-014 -6.20208e-014
lhumerus -28.7231 1.89673 89.9199
lradius 38.2643
lwrist 16.3106
lhand -19.3348 17.5662
lfingers 7.12502
lthumb 6.98193 47.4311
rfemur -16.4118 -5.31812 22.3602
rtibia 33.426
rfoot -29.6381 -15.256
rtoes 35.3611
lfemur -50.5746 22.9833 -30.6233
ltibia 55.4271
lfoot 30.8029 4.51293
ltoes 9.94008
2568
root -42.9893 16.9158 -2.40465 2648.75 84.7095 -233.472
lowerback 13.841 -2.72633 4.63208
upperback 11.2754 -2.2681 6.3891
thorax 4.32676 -0.70319 4.42598
lowerneck -5.37509 -10.1392 -5.47117
upperneck 24.059 -14.1944 7.25634
head 9.37363 -6.15467 1.98588
rclavicle -2.54444e-014 -3.18055e-015
rhumerus -25.3395 5.77263 -79.6527
rradius 40.587
rwrist -9.8466
rhand -30.6171 4.33771
rfingers 7.12502
rthumb -3.91343 -25.6061
lclavicle -2.54444e-014 -3.18055e-015
lhumerus -28.7812 1.90337 90.0783
lradius 38.3257
lwrist 16.34
lhand -19.337 17.6404
lfingers 7.12502
lthumb 6.97983 47.5053
rfemur -16.2107 -5.49957 22.3993
rtibia 33.1482
rfoot -29.4671 -15.3172
rtoes 35.422
lfemur -51.8439 23.2788 -31.1479
ltibia 57.1411
lfoot 30.5839 5.31342
ltoes 9.92886
2569
root -43.0169 16.9254 -2.3893 2649.98 84.6235 -232.064
lowerback 14.1441 -2.7319 4.67175
upperback 11.336 -2.22832 6.45319
thorax 4.2325 -0.676354 4.47949
lowerneck -5.36892 -10.1871 -5.5646
upperneck 23.8477 -14.2603 7.34117
head 9.31716 -6.1954 2.022
rclavicle -1.90833e-014 -5.725e-014
rhumerus -24.9433 5.8447 -79.6494
rradius 40.5312
rwrist -10.0665
rhand -30.8883 4.47385
rfingers 7.12502
rthumb -4.1753 -25.465
lclavicle -1.90833e-014 -5.725e-014
lhumerus -28.8501 1.88889 90.2485
lradius 38.3654
lwrist 16.3529
lhand -19.2379 17.841
lfingers 7.12502
lthumb 7.07548 47.7027
rfemur -15.9621 -5.65622 22.4473
rtibia 32.8356
rfoot -29.3056 -15.3948
rtoes 35.5016
lfemur -53.1288 23.6053 -31.6832
ltibia 58.9856
lfoot 30.0343 6.17827
ltoes 10.1203
2570
root -43.0441 16.9362 -2.37423 2651.05 84.536 -230.824
lowerback 14.4521 -2.73207 4.70595
upperback 11.3921 -2.1811 6.51856
thorax 4.13094 -0.646337 4.53657
lowerneck -5.35985 -10.2376 -5.65828
upperneck 23.6576 -14.3277 7.41608
head 9.26725 -6.23667 2.05467
rclavicle 2.70347e-014 9.54166e-015
rhumerus -24.5438 5.93057 -79.6438
rradius 40.4562
rwrist -10.2812
rhand -31.1552 4.68327
rfingers 7.12502
rthumb -4.43296 -25.2503
lclavicle 2.70347e-014 9.54166e-015
lhumerus -28.9302 1.85051 90.4329
lradius 38.3805
lwrist 16.3527
lhand -19.0477 18.1872
lfingers 7.12502
lthumb 7.25915 48.0426
rfemur -15.6924 -5.78822 22.487
rtibia 32.4982
rfoot -29.1498 -15.4844
rtoes 35.5914
lfemur -54.445 23.9399 -32.2501
ltibia 60.9438
lfoot 29.2078 7.1149
ltoes 10.5182
